<svg width="14" height="14" viewBox="0 0 14 14" fill="none" xmlns="http://www.w3.org/2000/svg">
<path d="M11.9532 7.65594C11.9799 7.4426 11.9999 7.22927 11.9999 7.0026C11.9999 6.77594 11.9799 6.5626 11.9532 6.34927L13.3599 5.24927C13.4866 5.14927 13.5199 4.96927 13.4399 4.8226L12.1066 2.51594C12.0266 2.36927 11.8466 2.31594 11.6999 2.36927L10.0399 3.03594C9.69323 2.76927 9.31989 2.54927 8.91323 2.3826L8.65989 0.615938C8.63989 0.455938 8.49989 0.335938 8.33323 0.335938H5.66656C5.49989 0.335938 5.35989 0.455938 5.33989 0.615938L5.08656 2.3826C4.67989 2.54927 4.30656 2.77594 3.95989 3.03594L2.29989 2.36927C2.14656 2.30927 1.97323 2.36927 1.89323 2.51594L0.559893 4.8226C0.473226 4.96927 0.513226 5.14927 0.639893 5.24927L2.04656 6.34927C2.01989 6.5626 1.99989 6.7826 1.99989 7.0026C1.99989 7.2226 2.01989 7.4426 2.04656 7.65594L0.639893 8.75594C0.513226 8.85594 0.479893 9.03594 0.559893 9.1826L1.89323 11.4893C1.97323 11.6359 2.15323 11.6893 2.29989 11.6359L3.95989 10.9693C4.30656 11.2359 4.67989 11.4559 5.08656 11.6226L5.33989 13.3893C5.35989 13.5493 5.49989 13.6693 5.66656 13.6693H8.33323C8.49989 13.6693 8.63989 13.5493 8.65989 13.3893L8.91323 11.6226C9.31989 11.4559 9.69323 11.2293 10.0399 10.9693L11.6999 11.6359C11.8532 11.6959 12.0266 11.6359 12.1066 11.4893L13.4399 9.1826C13.5199 9.03594 13.4866 8.85594 13.3599 8.75594L11.9532 7.65594ZM6.99989 9.33594C5.71323 9.33594 4.66656 8.28927 4.66656 7.0026C4.66656 5.71594 5.71323 4.66927 6.99989 4.66927C8.28656 4.66927 9.33323 5.71594 9.33323 7.0026C9.33323 8.28927 8.28656 9.33594 6.99989 9.33594Z" fill="#999999"/>
</svg>
