<svg width="16" height="16" viewBox="0 0 16 16" fill="none" xmlns="http://www.w3.org/2000/svg">
<g clip-path="url(#clip0_3643_69212)">
<path fill-rule="evenodd" clip-rule="evenodd" d="M7.40402 3.04067L5.11736 5.32533L4.36136 4.57867L5.74136 3.192H2.54136C2.33124 3.192 2.12318 3.23339 1.92906 3.31379C1.73494 3.3942 1.55856 3.51206 1.40999 3.66063C1.26141 3.8092 1.14356 3.98559 1.06315 4.17971C0.982742 4.37383 0.941357 4.58189 0.941357 4.792C0.941357 5.00212 0.982742 5.21017 1.06315 5.40429C1.14356 5.59841 1.26141 5.7748 1.40999 5.92337C1.55856 6.07194 1.73494 6.1898 1.92906 6.27021C2.12318 6.35062 2.33124 6.392 2.54136 6.392H3.13469V7.45867H2.54802C1.86344 7.42617 1.21766 7.13134 0.74467 6.63537C0.271683 6.13939 0.0078125 5.48035 0.0078125 4.795C0.0078125 4.10965 0.271683 3.45061 0.74467 2.95463C1.21766 2.45866 1.86344 2.16383 2.54802 2.13133H5.74802L4.36069 0.753333L5.11736 0L7.40402 2.288V3.04067ZM11.0807 16H4.68069L4.14736 15.4667V6.94133L4.68069 6.408H11.0807L11.614 6.94133V15.4667L11.0807 16ZM5.21402 14.9333H10.5474V7.47467H5.21402V14.9333ZM8.94736 1.068H15.3474L15.8807 1.60133V10.1253L15.3474 10.6587H12.6807V9.592H14.814V2.13333H9.48069V5.32467H8.41402V1.60067L8.94736 1.06733V1.068ZM9.48069 8.52533H6.28069V9.592H9.48069V8.52533ZM6.28069 10.6587H9.48069V11.7253H6.28069V10.6587ZM9.48069 12.792H6.28069V13.8587H9.48069V12.792ZM10.5474 3.192H13.7474V4.25867H10.5474V3.192ZM13.7474 7.45867H12.6807V8.52533H13.7474V7.45867ZM11.522 5.34133V5.32533H13.7474V6.392H12.5727L11.522 5.34133Z" fill="#C2C2C2"/>
</g>
<defs>
<clipPath id="clip0_3643_69212">
<rect width="16" height="16" fill="white"/>
</clipPath>
</defs>
</svg>
