<svg width="19" height="15" viewBox="0 0 19 15" fill="none" xmlns="http://www.w3.org/2000/svg">
<path fill-rule="evenodd" clip-rule="evenodd" d="M15.9 3.6L12.5 0.1L12.2 0H5.5L5 0.5V3H6V1H11V5H15V6H16V4L15.9 3.6ZM6 11H5V12.5L5.5 13H10V12H6V11ZM12 4V1L14.9 4H12ZM15 15H16V12H19V11H16V8H15V11H12V12H15V15Z" fill="#1F46C1"/>
<path d="M7.35355 7.35355C7.54882 7.15829 7.54882 6.84171 7.35355 6.64645L4.17157 3.46447C3.97631 3.2692 3.65973 3.2692 3.46447 3.46447C3.2692 3.65973 3.2692 3.97631 3.46447 4.17157L6.29289 7L3.46447 9.82843C3.2692 10.0237 3.2692 10.3403 3.46447 10.5355C3.65973 10.7308 3.97631 10.7308 4.17157 10.5355L7.35355 7.35355ZM0 7.5H7V6.5H0V7.5Z" fill="#1F46C1"/>
</svg>
