<svg width="36" height="36" viewBox="0 0 36 36" fill="none" xmlns="http://www.w3.org/2000/svg">
<path d="M14.3333 25.3333L21.6667 10.6667M34.5 2.6V33.4C34.5 33.6917 34.3841 33.9715 34.1778 34.1778C33.9715 34.3841 33.6917 34.5 33.4 34.5H2.6C2.30826 34.5 2.02847 34.3841 1.82218 34.1778C1.61589 33.9715 1.5 33.6917 1.5 33.4V2.6C1.5 2.30826 1.61589 2.02847 1.82218 1.82218C2.02847 1.61589 2.30826 1.5 2.6 1.5H33.4C33.6917 1.5 33.9715 1.61589 34.1778 1.82218C34.3841 2.02847 34.5 2.30826 34.5 2.6Z" stroke="#999999" stroke-width="1.5" stroke-linecap="round" stroke-linejoin="round"/>
</svg>
